<?xml version="1.0" encoding="utf-8"?>
<!-- Generator: Adobe Illustrator 16.0.0, SVG Export Plug-In . SVG Version: 6.00 Build 0)  -->
<!DOCTYPE svg PUBLIC "-//W3C//DTD SVG 1.1//EN" "http://www.w3.org/Graphics/SVG/1.1/DTD/svg11.dtd">
<svg version="1.1" id="Layer_1" xmlns="http://www.w3.org/2000/svg" xmlns:xlink="http://www.w3.org/1999/xlink" x="0px" y="0px"
	 width="32px" height="32px" viewBox="496 496 32 32" enable-background="new 496 496 32 32" xml:space="preserve">
<g id="icomoon-ignore">
</g>
<path d="M497.692,504.142c0,2.662,0.889,4.582,2.64,5.71c1.436,0.926,3.1,1.065,3.966,1.065c0.21,0,0.379-0.011,0.497-0.018
	c0,0-0.274,1.788,1.051,3.556h-0.061c-2.296,0-9.786,0.48-9.786,6.641c0,6.264,6.878,6.582,8.259,6.582
	c0.109,0,0.173-0.002,0.173-0.002c0.014,0,0.112,0.002,0.282,0.002c0.885,0,3.175-0.109,5.3-1.145
	c2.758-1.336,4.157-3.668,4.157-6.922c0-3.143-2.131-5.014-3.687-6.381c-0.95-0.836-1.771-1.556-1.771-2.256
	c0-0.713,0.601-1.249,1.358-1.928c1.228-1.096,2.386-2.658,2.386-5.612c0-2.596-0.337-4.34-2.413-5.446
	c0.215-0.11,0.981-0.191,1.359-0.244c1.125-0.153,2.769-0.328,2.769-1.246v-0.176h-8.194
	C505.897,496.325,497.692,496.628,497.692,504.142L497.692,504.142z M510.919,520.199c0.157,2.506-1.987,4.354-5.206,4.586
	c-3.27,0.24-5.959-1.23-6.117-3.734c-0.076-1.205,0.453-2.381,1.488-3.318c1.049-0.951,2.491-1.539,4.059-1.654
	c0.186-0.01,0.369-0.021,0.552-0.021C508.723,516.059,510.771,517.836,510.919,520.199L510.919,520.199z M508.779,502.426
	c0.804,2.829-0.41,5.783-2.344,6.33c-0.223,0.063-0.451,0.093-0.685,0.093c-1.771,0-3.526-1.792-4.178-4.264
	c-0.363-1.382-0.333-2.598,0.083-3.763c0.408-1.149,1.146-1.92,2.072-2.183c0.223-0.063,0.453-0.094,0.686-0.094
	C506.552,498.545,507.928,499.433,508.779,502.426z M522.655,508.437v-5.345h-3.563v5.345h-5.345V512h5.345v5.346h3.563V512H528
	v-3.563H522.655L522.655,508.437z"/>
</svg>
