<?xml version="1.0" encoding="utf-8"?>
<!-- Generator: Adobe Illustrator 16.0.0, SVG Export Plug-In . SVG Version: 6.00 Build 0)  -->
<!DOCTYPE svg PUBLIC "-//W3C//DTD SVG 1.1//EN" "http://www.w3.org/Graphics/SVG/1.1/DTD/svg11.dtd">
<svg version="1.1" id="Layer_1" xmlns="http://www.w3.org/2000/svg" xmlns:xlink="http://www.w3.org/1999/xlink" x="0px" y="0px"
	 width="32px" height="32px" viewBox="0 0 32 32" enable-background="new 0 0 32 32" xml:space="preserve">
<path d="M16,2.879c4.276,0,4.782,0.019,6.463,0.094c1.563,0.069,2.406,0.331,2.97,0.55c0.744,0.288,1.281,0.638,1.837,1.194
	c0.563,0.564,0.906,1.095,1.2,1.839c0.22,0.563,0.481,1.412,0.55,2.969c0.075,1.688,0.094,2.194,0.094,6.464
	c0,4.27-0.019,4.781-0.094,6.464c-0.068,1.563-0.33,2.405-0.55,2.969c-0.288,0.745-0.637,1.282-1.194,1.838
	c-0.563,0.563-1.094,0.906-1.837,1.2c-0.563,0.219-1.414,0.481-2.97,0.55c-1.688,0.075-2.194,0.094-6.464,0.094
	s-4.781-0.019-6.464-0.094c-1.563-0.068-2.406-0.331-2.969-0.55c-0.744-0.288-1.281-0.638-1.839-1.194
	c-0.563-0.563-0.906-1.094-1.2-1.838c-0.219-0.563-0.481-1.413-0.55-2.969c-0.075-1.688-0.094-2.194-0.094-6.464
	s0.019-4.782,0.094-6.464c0.069-1.564,0.331-2.407,0.55-2.97c0.288-0.744,0.638-1.281,1.194-1.838
	c0.563-0.563,1.095-0.906,1.838-1.2c0.563-0.219,1.412-0.481,2.97-0.55C11.216,2.898,11.724,2.879,16,2.879L16,2.879z M16-0.002
	c-4.345,0-4.888,0.019-6.595,0.094c-1.7,0.075-2.869,0.35-3.881,0.744c-1.056,0.412-1.95,0.957-2.837,1.851
	C1.792,3.574,1.248,4.467,0.835,5.518C0.441,6.537,0.167,7.699,0.092,9.399C0.017,11.112-0.002,11.656-0.002,16
	c0,4.345,0.019,4.888,0.094,6.595c0.075,1.7,0.35,2.869,0.744,3.882c0.413,1.057,0.957,1.95,1.851,2.838
	c0.887,0.887,1.781,1.438,2.832,1.844c1.019,0.394,2.181,0.669,3.881,0.744c1.706,0.074,2.25,0.094,6.595,0.094
	s4.889-0.02,6.595-0.094c1.7-0.075,2.869-0.351,3.882-0.744c1.051-0.406,1.944-0.956,2.831-1.844
	c0.888-0.889,1.438-1.781,1.845-2.832c0.394-1.02,0.668-2.182,0.744-3.882c0.074-1.705,0.094-2.25,0.094-6.595
	c0-4.344-0.02-4.888-0.094-6.595c-0.076-1.701-0.351-2.87-0.744-3.881c-0.395-1.064-0.938-1.957-1.832-2.845
	c-0.887-0.887-1.78-1.438-2.83-1.845c-1.021-0.394-2.183-0.669-3.882-0.744C20.89,0.016,20.347-0.003,16-0.002L16-0.002L16-0.002z"
	/>
<path d="M16,7.78c-4.538,0-8.221,3.682-8.221,8.22c0,4.539,3.682,8.22,8.221,8.22c4.539,0,8.22-3.681,8.22-8.22
	C24.22,11.462,20.539,7.78,16,7.78z M16,21.332c-2.944,0-5.332-2.389-5.332-5.332c0-2.944,2.388-5.332,5.332-5.332
	c2.943,0,5.332,2.388,5.332,5.332C21.332,18.943,18.943,21.332,16,21.332z"/>
<path d="M26.464,7.455c0,1.061-0.858,1.919-1.92,1.919c-1.061,0-1.919-0.859-1.919-1.919c0-1.06,0.858-1.919,1.919-1.919
	C25.605,5.536,26.464,6.395,26.464,7.455z"/>
</svg>
