<?xml version="1.0" encoding="utf-8"?>
<!-- Generator: Adobe Illustrator 16.0.0, SVG Export Plug-In . SVG Version: 6.00 Build 0)  -->
<!DOCTYPE svg PUBLIC "-//W3C//DTD SVG 1.1//EN" "http://www.w3.org/Graphics/SVG/1.1/DTD/svg11.dtd">
<svg version="1.1" id="Layer_1" xmlns="http://www.w3.org/2000/svg" xmlns:xlink="http://www.w3.org/1999/xlink" x="0px" y="0px"
	 width="32px" height="32px" viewBox="0 0 32 32" enable-background="new 0 0 32 32" xml:space="preserve">
<path d="M11.429,11.286h6.326v3.242h0.089c0.881-1.578,3.036-3.242,6.245-3.242c6.677,0,7.911,4.157,7.911,9.563v11.009h-6.594
	v-9.761c0-2.328-0.047-5.322-3.429-5.322c-3.436,0-3.957,2.536-3.957,5.154v9.929h-6.592V11.286z"/>
<path d="M0,11.286h6.857v20.572H0V11.286z"/>
<path d="M6.857,5.571C6.857,7.465,5.323,9,3.429,9S0,7.465,0,5.571s1.535-3.428,3.429-3.428S6.857,3.677,6.857,5.571z"/>
</svg>
