<?xml version="1.0" encoding="utf-8"?>
<!-- Generator: Adobe Illustrator 16.0.0, SVG Export Plug-In . SVG Version: 6.00 Build 0)  -->
<!DOCTYPE svg PUBLIC "-//W3C//DTD SVG 1.1//EN" "http://www.w3.org/Graphics/SVG/1.1/DTD/svg11.dtd">
<svg version="1.1" id="Layer_1" xmlns="http://www.w3.org/2000/svg" xmlns:xlink="http://www.w3.org/1999/xlink" x="0px" y="0px"
	 width="32px" height="32px" viewBox="0 0 32 32" enable-background="new 0 0 32 32" xml:space="preserve">
<path d="M16.001-0.005C7.165-0.005,0,7.157,0,15.996c0,6.78,4.22,12.566,10.172,14.896c-0.137-1.264-0.267-3.211,0.058-4.589
	c0.289-1.247,1.875-7.949,1.875-7.949s-0.476-0.959-0.476-2.372c0-2.223,1.292-3.889,2.893-3.889c1.363,0,2.027,1.023,2.027,2.25
	c0,1.371-0.873,3.427-1.328,5.325c-0.382,1.594,0.794,2.893,2.366,2.893c2.842,0,5.027-3.002,5.027-7.33
	c0-3.831-2.755-6.507-6.679-6.507c-4.552,0-7.22,3.412-7.22,6.946c0,1.379,0.526,2.851,1.19,3.651
	c0.13,0.157,0.151,0.295,0.108,0.462c-0.123,0.505-0.39,1.594-0.447,1.816c-0.073,0.297-0.231,0.354-0.535,0.218
	c-1.998-0.93-3.247-3.852-3.247-6.197c0-5.049,3.665-9.68,10.568-9.68c5.546,0,9.861,3.953,9.861,9.24
	c0,5.511-3.477,9.955-8.303,9.955c-1.624,0-3.146-0.844-3.666-1.839c0,0-0.801,3.051-0.996,3.802
	c-0.361,1.392-1.334,3.13-1.991,4.19c1.5,0.462,3.087,0.715,4.739,0.715c8.836,0,16-7.163,16-16.001
	C32,7.16,24.838-0.004,16.001-0.005L16.001-0.005z"/>
</svg>
