<?xml version="1.0" encoding="utf-8"?>
<!-- Generator: Adobe Illustrator 16.0.0, SVG Export Plug-In . SVG Version: 6.00 Build 0)  -->
<!DOCTYPE svg PUBLIC "-//W3C//DTD SVG 1.1//EN" "http://www.w3.org/Graphics/SVG/1.1/DTD/svg11.dtd">
<svg version="1.1" id="Layer_1" xmlns="http://www.w3.org/2000/svg" xmlns:xlink="http://www.w3.org/1999/xlink" x="0px" y="0px"
	 width="32px" height="32px" viewBox="0 0 32 32" enable-background="new 0 0 32 32" xml:space="preserve">
<path d="M16.158,16.041c-0.05-0.031-0.105-0.056-0.155-0.081c-0.057,0.012-0.106,0.019-0.162,0.031L16.158,16.041L16.158,16.041z"/>
<path d="M15.984,15.845c-0.012,0.056-0.019,0.113-0.025,0.162c0.031,0.05,0.05,0.1,0.081,0.15L15.984,15.845L15.984,15.845z"/>
<path d="M16.009,16.16c0.013-0.056,0.019-0.113,0.031-0.169c-0.031-0.051-0.05-0.1-0.081-0.15L16.009,16.16z"/>
<path d="M15.837,15.959c0.05,0.031,0.105,0.057,0.156,0.081c0.056-0.012,0.113-0.019,0.169-0.024L15.837,15.959z"/>
<path d="M30.865,18.668c-0.012,0.055-0.02,0.111-0.031,0.168l-0.056-0.324C30.809,18.566,30.834,18.617,30.865,18.668
	c0.163-0.9,0.25-1.82,0.25-2.739c0-2.037-0.4-4.019-1.188-5.881c-0.763-1.8-1.851-3.419-3.238-4.806
	c-1.389-1.387-3.006-2.475-4.801-3.237c-1.863-0.788-3.844-1.188-5.88-1.188c-0.963,0-1.925,0.088-2.863,0.269h-0.006
	c0.05,0.025,0.106,0.05,0.156,0.081l-0.319-0.05c0.056-0.012,0.106-0.019,0.162-0.031c-1.287-0.681-2.731-1.05-4.194-1.05
	c-2.388,0-4.638,0.931-6.325,2.619S0,6.592,0,8.98C0,10.5,0.394,12,1.125,13.318c0.012-0.056,0.019-0.113,0.025-0.162l0.056,0.319
	c-0.031-0.05-0.056-0.1-0.081-0.15C0.975,14.181,0.9,15.056,0.9,15.931c0,2.038,0.4,4.018,1.188,5.881
	c0.763,1.799,1.85,3.412,3.237,4.799C6.712,28,8.331,29.088,10.131,29.85c1.863,0.789,3.844,1.189,5.881,1.189
	c0.886,0,1.775-0.082,2.644-0.238c-0.051-0.031-0.1-0.057-0.156-0.082l0.325,0.057c-0.056,0.012-0.113,0.02-0.169,0.025
	c1.337,0.756,2.855,1.162,4.4,1.162c2.387,0,4.637-0.932,6.324-2.619C31.069,27.656,32,25.406,32,23.02
	c-0.006-1.52-0.4-3.02-1.137-4.35L30.865,18.668z M16.065,25.186c-5.369,0-7.769-2.637-7.769-4.619c0-1.012,0.75-1.725,1.781-1.725
	c2.3,0,1.7,3.299,5.988,3.299c2.195,0,3.406-1.193,3.406-2.412c0-0.73-0.363-1.545-1.806-1.9l-4.775-1.193
	c-3.844-0.963-4.544-3.044-4.544-5c0-4.056,3.819-5.581,7.406-5.581c3.307,0,7.2,1.825,7.2,4.263c0,1.044-0.906,1.65-1.938,1.65
	c-1.961,0-1.6-2.713-5.55-2.713c-1.963,0-3.044,0.887-3.044,2.156c0,1.269,1.55,1.675,2.894,1.98l3.538,0.787
	c3.869,0.863,4.851,3.125,4.851,5.25c0,3.293-2.531,5.756-7.637,5.756V25.186z"/>
</svg>
