<?xml version="1.0" encoding="utf-8"?>
<!-- Generator: Adobe Illustrator 16.0.0, SVG Export Plug-In . SVG Version: 6.00 Build 0)  -->
<!DOCTYPE svg PUBLIC "-//W3C//DTD SVG 1.1//EN" "http://www.w3.org/Graphics/SVG/1.1/DTD/svg11.dtd">
<svg version="1.1" id="Layer_1" xmlns="http://www.w3.org/2000/svg" xmlns:xlink="http://www.w3.org/1999/xlink" x="0px" y="0px"
	 width="32px" height="32px" viewBox="459.5 496 32 32" enable-background="new 459.5 496 32 32" xml:space="preserve">
<g id="icomoon-ignore">
</g>
<path d="M475.813,496.959c1.749-0.013,3.319,0.434,4.71,1.341c1.39,0.908,2.457,2.164,3.201,3.77
	c0.353,0.757,0.529,1.926,0.529,3.505c0,0.614-0.059,1.86-0.177,3.741c0.184,0.091,0.366,0.137,0.549,0.137
	c0.235,0,0.567-0.088,0.999-0.265c0.431-0.176,0.764-0.264,0.998-0.264c0.379,0,0.744,0.117,1.097,0.353
	c0.353,0.235,0.529,0.535,0.529,0.901c0,0.417-0.206,0.77-0.617,1.057c-0.411,0.288-0.861,0.493-1.352,0.617
	c-0.489,0.124-0.939,0.313-1.351,0.568c-0.411,0.255-0.617,0.565-0.617,0.931c0,0.196,0.078,0.477,0.235,0.842
	c0.482,1.071,1.152,2.05,2.007,2.938c0.855,0.888,1.799,1.548,2.83,1.979c0.365,0.156,0.888,0.307,1.566,0.45
	c0.366,0.078,0.549,0.307,0.549,0.686c0,0.914-1.43,1.586-4.289,2.017c-0.092,0.145-0.163,0.398-0.216,0.765
	c-0.052,0.365-0.144,0.669-0.273,0.91c-0.131,0.241-0.347,0.362-0.646,0.362c-0.262,0-0.666-0.042-1.215-0.127
	c-0.548-0.085-0.966-0.128-1.253-0.128c-0.483,0-0.888,0.033-1.214,0.099c-0.418,0.064-0.829,0.212-1.234,0.44
	c-0.404,0.229-0.783,0.477-1.136,0.744s-0.73,0.532-1.136,0.793c-0.404,0.261-0.9,0.479-1.488,0.656
	c-0.588,0.176-1.233,0.265-1.938,0.265c-0.679,0-1.309-0.089-1.89-0.265c-0.581-0.177-1.071-0.396-1.469-0.656
	c-0.398-0.261-0.773-0.525-1.126-0.793s-0.731-0.516-1.137-0.744c-0.404-0.229-0.809-0.376-1.214-0.44
	c-0.339-0.065-0.751-0.099-1.233-0.099c-0.313,0-0.741,0.049-1.283,0.147c-0.542,0.098-0.924,0.146-1.146,0.146
	c-0.326,0-0.555-0.12-0.686-0.362c-0.131-0.241-0.222-0.552-0.274-0.93c-0.052-0.379-0.124-0.64-0.215-0.784
	c-2.859-0.431-4.289-1.103-4.289-2.017c0-0.379,0.183-0.607,0.549-0.686c0.679-0.144,1.2-0.294,1.566-0.45
	c1.019-0.418,1.962-1.077,2.83-1.979c0.868-0.9,1.537-1.88,2.007-2.938c0.156-0.365,0.235-0.646,0.235-0.842
	c0-0.365-0.206-0.676-0.617-0.931c-0.411-0.254-0.865-0.447-1.361-0.578c-0.496-0.131-0.949-0.336-1.36-0.617
	c-0.412-0.28-0.617-0.623-0.617-1.028c0-0.353,0.17-0.649,0.509-0.891c0.34-0.242,0.698-0.362,1.077-0.362
	c0.196,0,0.51,0.085,0.94,0.254c0.431,0.17,0.776,0.255,1.038,0.255c0.234,0,0.443-0.046,0.626-0.137
	c-0.117-1.854-0.176-3.094-0.176-3.721c0-1.593,0.176-2.768,0.528-3.525c0.836-1.789,1.959-3.081,3.369-3.877
	S473.776,496.986,475.813,496.959L475.813,496.959z"/>
</svg>
