<?xml version="1.0" encoding="utf-8"?>
<!-- Generator: Adobe Illustrator 16.0.0, SVG Export Plug-In . SVG Version: 6.00 Build 0)  -->
<!DOCTYPE svg PUBLIC "-//W3C//DTD SVG 1.1//EN" "http://www.w3.org/Graphics/SVG/1.1/DTD/svg11.dtd">
<svg version="1.1" id="Layer_1" xmlns="http://www.w3.org/2000/svg" xmlns:xlink="http://www.w3.org/1999/xlink" x="0px" y="0px"
	 width="32px" height="32px" viewBox="0 0 32 32" enable-background="new 0 0 32 32" xml:space="preserve">
<path d="M32,6.076c-1.175,0.525-2.443,0.875-3.769,1.03c1.355-0.813,2.394-2.1,2.887-3.63c-1.269,0.75-2.674,1.3-4.168,1.594
	c-1.2-1.274-2.906-2.068-4.794-2.068c-3.624,0-6.562,2.938-6.562,6.562c0,0.512,0.056,1.012,0.169,1.494
	C10.309,10.782,5.472,8.17,2.235,4.196c-0.563,0.969-0.887,2.1-0.887,3.3c0,2.274,1.156,4.286,2.919,5.462
	c-1.075-0.031-2.087-0.331-2.974-0.819c0,0.025,0,0.056,0,0.081c0,3.181,2.262,5.838,5.268,6.437c-0.55,0.148-1.131,0.23-1.731,0.23
	c-0.425,0-0.831-0.045-1.237-0.119c0.837,2.605,3.262,4.506,6.13,4.563c-2.25,1.761-5.074,2.812-8.155,2.812
	c-0.53,0-1.049-0.03-1.568-0.094c2.913,1.869,6.361,2.95,10.067,2.95c12.074,0,18.678-10.005,18.678-18.678
	c0-0.287-0.006-0.569-0.02-0.851C30.006,8.552,31.119,7.396,32,6.076L32,6.076z"/>
</svg>
