<?xml version="1.0" encoding="utf-8"?>
<!-- Generator: Adobe Illustrator 21.0.0, SVG Export Plug-In . SVG Version: 6.00 Build 0)  -->
<svg version="1.1" id="Layer_1" xmlns="http://www.w3.org/2000/svg" xmlns:xlink="http://www.w3.org/1999/xlink" x="0px" y="0px"
	 viewBox="0 0 32 32" style="enable-background:new 0 0 32 32;" xml:space="preserve">
<path d="M31.3,8.3C31,7,29.9,5.9,28.5,5.5C26,4.8,16,4.8,16,4.8S6,4.8,3.5,5.5C2.1,5.8,1,6.9,0.7,8.3C0,10.8,0,16,0,16
	s0,5.2,0.6,7.7c0.4,1.4,1.4,2.5,2.8,2.8C6,27.2,16,27.2,16,27.2s10,0,12.5-0.6c1.4-0.4,2.5-1.4,2.8-2.8c0.7-2.5,0.7-7.7,0.7-7.7
	S32,10.8,31.3,8.3z M12.8,20.8l0-9.6l8.3,4.8L12.8,20.8z"/>
</svg>
