<?xml version="1.0" encoding="utf-8"?>
<!-- Generator: Adobe Illustrator 21.0.0, SVG Export Plug-In . SVG Version: 6.00 Build 0)  -->
<svg version="1.1" id="Layer_1" xmlns="http://www.w3.org/2000/svg" xmlns:xlink="http://www.w3.org/1999/xlink" x="0px" y="0px"
	 viewBox="0 0 32 32" style="enable-background:new 0 0 32 32;" xml:space="preserve">
<path d="M24.7,5.8H10.2C4.7,5.8,0,10.5,0,16s4.7,10.2,10.2,10.2h13.1v-2.9H10.2c-3.9,0-7.3-3.3-7.3-7.3s3.3-7.3,7.3-7.3h14.5V7.3
	l0,1.5h0c2.4,0,4.4,2,4.4,4.4c0,1.1-0.5,2.2-1.3,3.1c-0.8,0.8-1.9,1.3-3.1,1.3H10.2c-0.8,0-1.5-0.7-1.5-1.5s0.7-1.5,1.5-1.5h13.1
	v-2.9H10.2c-2.4,0-4.4,2-4.4,4.4s2,4.4,4.4,4.4h14.5c1.9,0,3.8-0.8,5.1-2.1c1.4-1.4,2.1-3.2,2.1-5.1C32,9.1,28.7,5.8,24.7,5.8z"/>
</svg>
