<?xml version="1.0" encoding="iso-8859-1"?>
<!-- Generator: Adobe Illustrator 17.0.0, SVG Export Plug-In . SVG Version: 6.00 Build 0)  -->
<!DOCTYPE svg PUBLIC "-//W3C//DTD SVG 1.1//EN" "http://www.w3.org/Graphics/SVG/1.1/DTD/svg11.dtd">
<svg version="1.1" xmlns="http://www.w3.org/2000/svg" xmlns:xlink="http://www.w3.org/1999/xlink" x="0px" y="0px" width="32px"
	 height="32px" viewBox="0 0 32 32" style="enable-background:new 0 0 32 32;" xml:space="preserve">
<g id="checkmark">
	<g>
		<path d="M16,1C7.717,1,1,7.717,1,16s6.717,15,15,15s15-6.717,15-15S24.283,1,16,1z M23.694,10.984l-9.315,11.953
			c-0.074,0.074-0.194,0.234-0.342,0.234c-0.154,0-0.254-0.107-0.342-0.194c-0.087-0.087-5.283-5.083-5.283-5.083l-0.1-0.1
			c-0.04-0.06-0.074-0.134-0.074-0.214s0.033-0.154,0.074-0.214c0.027-0.027,0.047-0.047,0.074-0.08
			c0.516-0.542,1.56-1.641,1.627-1.708c0.087-0.087,0.161-0.201,0.321-0.201c0.167,0,0.275,0.141,0.355,0.221
			c0.08,0.08,3.013,2.9,3.013,2.9l7.453-9.576c0.067-0.054,0.147-0.094,0.234-0.094c0.087,0,0.167,0.033,0.234,0.087l2.049,1.614
			c0.054,0.067,0.087,0.147,0.087,0.234C23.768,10.85,23.734,10.924,23.694,10.984z"/>
	</g>
</g>
<g id="Layer_1">
</g>
</svg>
