<?xml version="1.0" encoding="iso-8859-1"?>
<!-- Generator: Adobe Illustrator 17.0.0, SVG Export Plug-In . SVG Version: 6.00 Build 0)  -->
<!DOCTYPE svg PUBLIC "-//W3C//DTD SVG 1.1//EN" "http://www.w3.org/Graphics/SVG/1.1/DTD/svg11.dtd">
<svg version="1.1" xmlns="http://www.w3.org/2000/svg" xmlns:xlink="http://www.w3.org/1999/xlink" x="0px" y="0px" width="32px"
	 height="32px" viewBox="0 0 32 32" style="enable-background:new 0 0 32 32;" xml:space="preserve">
<g id="copy">
	<g>
		<path d="M12.087,13.391c0,0.359,0.293,0.652,0.652,0.652h5.87l-6.522-6.522V13.391z"/>
		<path d="M10.261,14.696V7.522H1c-0.359,0-0.652,0.293-0.652,0.652v22.174C0.348,30.707,0.641,31,1,31h16.957
			c0.357,0,0.652-0.293,0.652-0.652V15.87h-7.174C10.67,15.87,10.261,15.187,10.261,14.696z"/>
		<g style="opacity:0.66;">
			<path d="M25.783,7.522h5.87L25.13,1v5.87C25.13,7.228,25.424,7.522,25.783,7.522z"/>
			<path d="M23.304,8.178V1h-9.261c-0.359,0-0.652,0.293-0.652,0.652v3.939l7.043,7.043v11.843H31c0.357,0,0.652-0.293,0.652-0.652
				V9.348h-7.177C23.711,9.348,23.304,8.67,23.304,8.178z"/>
		</g>
	</g>
</g>
<g id="Layer_1">
</g>
</svg>
