<?xml version="1.0" encoding="iso-8859-1"?>
<!-- Generator: Adobe Illustrator 17.0.0, SVG Export Plug-In . SVG Version: 6.00 Build 0)  -->
<!DOCTYPE svg PUBLIC "-//W3C//DTD SVG 1.1//EN" "http://www.w3.org/Graphics/SVG/1.1/DTD/svg11.dtd">
<svg version="1.1" xmlns="http://www.w3.org/2000/svg" xmlns:xlink="http://www.w3.org/1999/xlink" x="0px" y="0px" width="32px"
	 height="32px" viewBox="0 0 32 32" style="enable-background:new 0 0 32 32;" xml:space="preserve">
<g id="date">
	<g transform="translate(480 96)">
		<path d="M-471.5-91.25v-1.875c0-1.036,0.84-1.875,1.875-1.875s1.875,0.839,1.875,1.875v1.875c0,1.035-0.84,1.875-1.875,1.875
			S-471.5-90.214-471.5-91.25z M-458.375-89.375c1.036,0,1.875-0.84,1.875-1.875v-1.875c0-1.036-0.839-1.875-1.875-1.875
			c-1.035,0-1.875,0.839-1.875,1.875v1.875C-460.25-90.214-459.411-89.375-458.375-89.375z M-450.875-65h-26.25v-26.25h4.688
			c0,1.549,1.262,2.812,2.812,2.812s2.812-1.264,2.812-2.812h5.625c0,1.549,1.262,2.812,2.812,2.812s2.812-1.264,2.812-2.812h4.688
			V-65L-450.875-65z M-452.75-85.625h-22.5v18.75h22.5V-85.625L-452.75-85.625z M-467.75-83.75h-3.75V-80h3.75V-83.75z
			 M-462.125-83.75h-3.75V-80h3.75V-83.75z M-456.5-83.75h-3.75V-80h3.75V-83.75z M-467.75-78.125h-3.75v3.75h3.75V-78.125z
			 M-462.125-78.125h-3.75v3.75h3.75V-78.125z M-456.5-78.125h-3.75v3.75h3.75V-78.125z M-467.75-72.5h-3.75v3.75h3.75V-72.5z
			 M-462.125-72.5h-3.75v3.75h3.75V-72.5z M-456.5-72.5h-3.75v3.75h3.75V-72.5z"/>
	</g>
</g>
<g id="Layer_1">
</g>
</svg>
