<?xml version="1.0" encoding="iso-8859-1"?>
<!-- Generator: Adobe Illustrator 17.0.0, SVG Export Plug-In . SVG Version: 6.00 Build 0)  -->
<!DOCTYPE svg PUBLIC "-//W3C//DTD SVG 1.1//EN" "http://www.w3.org/Graphics/SVG/1.1/DTD/svg11.dtd">
<svg version="1.1" xmlns="http://www.w3.org/2000/svg" xmlns:xlink="http://www.w3.org/1999/xlink" x="0px" y="0px" width="32px"
	 height="32px" viewBox="0 0 32 32" style="enable-background:new 0 0 32 32;" xml:space="preserve">
<g id="delete">
	<g>
		<path d="M27.471,4.48h-5.882v-0.88c0-1.46-1.188-2.649-2.649-2.649h-5.882c-1.46,0-2.649,1.188-2.649,2.649v0.88H4.529v1.768
			h1.227L6.918,28.31c0.004,1.457,1.191,2.641,2.649,2.641h12.939c1.458,0,2.644-1.184,2.649-2.641l1.142-22.062h1.174L27.471,4.48z
			 M13.059,2.719h5.882c0.485,0,0.88,0.395,0.88,0.88v0.88h-7.642v-0.88C12.179,3.114,12.574,2.719,13.059,2.719z M24.527,6.248
			L23.39,28.222l-0.003,0.08c0,0.485-0.395,0.88-0.88,0.88H9.567c-0.485,0-0.88-0.395-0.88-0.88l-0.002-0.078L7.526,6.248H24.527z"
			/>
		<rect x="15.116" y="8.009" width="1.768" height="19.413"/>
		<rect x="2.189" y="16.849" transform="matrix(0.064 0.998 -0.998 0.064 28.8325 4.7265)" width="19.415" height="1.768"/>
		<rect x="19.237" y="7.99" transform="matrix(0.998 0.0624 -0.0624 0.998 1.1456 -1.222)" width="1.768" height="19.45"/>
	</g>
</g>
<g id="Layer_1">
</g>
</svg>
