<?xml version="1.0" encoding="iso-8859-1"?>
<!-- Generator: Adobe Illustrator 17.0.0, SVG Export Plug-In . SVG Version: 6.00 Build 0)  -->
<!DOCTYPE svg PUBLIC "-//W3C//DTD SVG 1.1//EN" "http://www.w3.org/Graphics/SVG/1.1/DTD/svg11.dtd">
<svg version="1.1" xmlns="http://www.w3.org/2000/svg" xmlns:xlink="http://www.w3.org/1999/xlink" x="0px" y="0px" width="32px"
	 height="32px" viewBox="0 0 32 32" style="enable-background:new 0 0 32 32;" xml:space="preserve">
<g id="duplicate">
	<polygon points="7.316,1 7.316,5.737 8.895,5.737 8.895,2.579 29.421,2.579 29.421,23.105 26.263,23.105 26.263,24.684 31,24.684 
		31,1 	"/>
	<g>
		<path d="M24.358,7.316H1.326C1.146,7.316,1,7.432,1,7.578v23.16C1,30.883,1.145,31,1.326,31h23.033
			c0.18,0,0.326-0.116,0.326-0.262V7.578C24.684,7.433,24.539,7.316,24.358,7.316z M19.01,20.7h-4.626v4.626H11.3V20.7H6.674v-3.084
			H11.3V12.99h3.084v4.626h4.626V20.7z"/>
	</g>
</g>
<g id="Layer_1">
</g>
</svg>
