<?xml version="1.0" encoding="utf-8"?>
<!-- Generator: Adobe Illustrator 16.0.0, SVG Export Plug-In . SVG Version: 6.00 Build 0)  -->
<!DOCTYPE svg PUBLIC "-//W3C//DTD SVG 1.1//EN" "http://www.w3.org/Graphics/SVG/1.1/DTD/svg11.dtd">
<svg version="1.1" id="Layer_1" xmlns="http://www.w3.org/2000/svg" xmlns:xlink="http://www.w3.org/1999/xlink" x="0px" y="0px"
	 width="32px" height="32px" viewBox="880 880 32 32" enable-background="new 880 880 32 32" xml:space="preserve">
<path d="M912,891.536v14.178c0,0.786-0.279,1.459-0.839,2.019s-1.232,0.839-2.019,0.839h-26.286c-0.786,0-1.458-0.279-2.018-0.839
	S880,906.5,880,905.714v-14.178c0.524,0.583,1.125,1.101,1.804,1.554c4.31,2.929,7.268,4.982,8.875,6.161
	c0.678,0.5,1.229,0.89,1.652,1.17c0.422,0.279,0.985,0.565,1.688,0.856c0.702,0.292,1.357,0.438,1.964,0.438h0.036
	c0.607,0,1.261-0.146,1.964-0.438c0.702-0.291,1.265-0.577,1.688-0.856c0.422-0.28,0.973-0.67,1.651-1.17
	c2.024-1.464,4.988-3.518,8.893-6.161C910.893,892.625,911.489,892.107,912,891.536z M912,886.286c0,0.94-0.292,1.839-0.875,2.696
	c-0.583,0.857-1.31,1.589-2.179,2.197c-4.476,3.107-7.262,5.042-8.357,5.804c-0.118,0.083-0.372,0.265-0.759,0.544
	c-0.387,0.28-0.708,0.507-0.964,0.679c-0.256,0.173-0.565,0.366-0.929,0.581c-0.363,0.214-0.705,0.375-1.026,0.481
	c-0.322,0.107-0.62,0.161-0.893,0.161h-0.036c-0.273,0-0.571-0.054-0.893-0.161c-0.321-0.106-0.664-0.268-1.027-0.481
	c-0.363-0.215-0.673-0.408-0.929-0.581c-0.256-0.172-0.577-0.398-0.964-0.679c-0.387-0.279-0.64-0.461-0.759-0.544
	c-1.083-0.762-2.643-1.849-4.679-3.259c-2.036-1.411-3.256-2.259-3.661-2.544c-0.738-0.5-1.435-1.188-2.089-2.063
	S880,887.429,880,886.679c0-0.929,0.247-1.703,0.741-2.322c0.494-0.619,1.199-0.928,2.116-0.928h26.286
	c0.774,0,1.443,0.28,2.009,0.839C911.717,884.827,912,885.5,912,886.286z"/>
</svg>
