<?xml version="1.0" encoding="iso-8859-1"?>
<!-- Generator: Adobe Illustrator 17.0.0, SVG Export Plug-In . SVG Version: 6.00 Build 0)  -->
<!DOCTYPE svg PUBLIC "-//W3C//DTD SVG 1.1//EN" "http://www.w3.org/Graphics/SVG/1.1/DTD/svg11.dtd">
<svg version="1.1" xmlns="http://www.w3.org/2000/svg" xmlns:xlink="http://www.w3.org/1999/xlink" x="0px" y="0px" width="32px"
	 height="32px" viewBox="0 0 32 32" style="enable-background:new 0 0 32 32;" xml:space="preserve">
<g id="logout">
	<g id="icons">
		<g id="exit2">
			<g>
				<path d="M16,3.417c-0.919,0-1.667,0.748-1.667,1.667v9.333c0,0.919,0.748,1.667,1.667,1.667s1.667-0.748,1.667-1.667V5.084
					C17.667,4.165,16.919,3.417,16,3.417z"/>
			</g>
			<g>
				<path d="M8,6.25c-0.337,0-0.749,0.155-1.189,0.449c-2.323,2.336-3.644,5.573-3.644,9.051c0,7.076,5.757,12.833,12.833,12.833
					c7.076,0,12.833-5.757,12.833-12.833c0-3.478-1.321-6.714-3.72-9.113C24.821,6.344,24.55,6.25,24,6.25
					c-0.785,0-1.5,0.715-1.5,1.5c0,0.337,0.155,0.749,0.449,1.189c1.778,1.764,2.751,4.146,2.751,6.811
					c0,5.514-4.319,9.833-9.833,9.833s-9.833-4.319-9.833-9.833c0-2.609,1.107-5.189,2.961-6.9C9.306,8.538,9.5,8.122,9.5,7.75
					C9.5,6.965,8.785,6.25,8,6.25z"/>
			</g>
		</g>
	</g>
</g>
<g id="Layer_1">
</g>
</svg>
