<?xml version="1.0" encoding="utf-8"?>
<!-- Generator: Adobe Illustrator 16.0.0, SVG Export Plug-In . SVG Version: 6.00 Build 0)  -->
<!DOCTYPE svg PUBLIC "-//W3C//DTD SVG 1.1//EN" "http://www.w3.org/Graphics/SVG/1.1/DTD/svg11.dtd">
<svg version="1.1" id="Layer_1" xmlns="http://www.w3.org/2000/svg" xmlns:xlink="http://www.w3.org/1999/xlink" x="0px" y="0px"
	 width="32px" height="32px" viewBox="880 880 32 32" enable-background="new 880 880 32 32" xml:space="preserve">
<path d="M912,905.272c0,0.409-0.076,0.943-0.228,1.603s-0.311,1.178-0.477,1.557c-0.318,0.758-1.243,1.561-2.773,2.409
	c-1.424,0.772-2.833,1.159-4.227,1.159c-0.409,0-0.808-0.026-1.193-0.08c-0.387-0.053-0.822-0.147-1.307-0.283
	c-0.485-0.137-0.845-0.246-1.08-0.33c-0.234-0.083-0.655-0.238-1.262-0.466c-0.605-0.228-0.977-0.364-1.113-0.409
	c-1.484-0.53-2.811-1.159-3.977-1.887c-1.939-1.196-3.943-2.829-6.012-4.897c-2.068-2.067-3.701-4.071-4.897-6.011
	c-0.728-1.167-1.356-2.493-1.886-3.978c-0.046-0.137-0.182-0.508-0.409-1.114c-0.228-0.606-0.383-1.026-0.466-1.261
	c-0.083-0.235-0.193-0.595-0.33-1.08c-0.137-0.485-0.231-0.92-0.284-1.307c-0.053-0.386-0.08-0.784-0.08-1.193
	c0-1.394,0.386-2.803,1.159-4.228c0.849-1.53,1.651-2.455,2.409-2.772c0.378-0.167,0.897-0.326,1.557-0.478
	c0.659-0.151,1.193-0.227,1.602-0.227c0.212,0,0.372,0.022,0.478,0.068c0.272,0.091,0.674,0.667,1.205,1.727
	c0.167,0.288,0.394,0.697,0.682,1.227c0.288,0.53,0.553,1.012,0.795,1.443c0.243,0.432,0.478,0.837,0.705,1.216
	c0.045,0.061,0.178,0.25,0.398,0.568s0.382,0.587,0.488,0.807c0.106,0.22,0.159,0.436,0.159,0.648c0,0.303-0.216,0.682-0.647,1.136
	c-0.432,0.455-0.902,0.871-1.409,1.25c-0.508,0.379-0.978,0.78-1.409,1.205s-0.648,0.773-0.648,1.045
	c0,0.136,0.038,0.307,0.114,0.511s0.14,0.36,0.193,0.466c0.053,0.106,0.159,0.288,0.318,0.545c0.159,0.257,0.247,0.401,0.262,0.432
	c1.151,2.076,2.47,3.856,3.955,5.341c1.485,1.484,3.265,2.803,5.34,3.954c0.03,0.015,0.175,0.103,0.433,0.261
	c0.257,0.16,0.439,0.266,0.545,0.318c0.106,0.054,0.262,0.118,0.466,0.193c0.205,0.076,0.375,0.113,0.512,0.113
	c0.272,0,0.621-0.215,1.045-0.646c0.425-0.433,0.826-0.902,1.205-1.41c0.379-0.507,0.795-0.977,1.25-1.408
	c0.454-0.432,0.833-0.648,1.137-0.648c0.212,0,0.428,0.053,0.647,0.159s0.488,0.269,0.807,0.489
	c0.318,0.219,0.508,0.352,0.568,0.397c0.379,0.228,0.784,0.462,1.216,0.704s0.913,0.508,1.443,0.796s0.939,0.515,1.227,0.682
	c1.062,0.53,1.637,0.932,1.728,1.204C911.978,904.901,912,905.061,912,905.272z"/>
</svg>
