<?xml version="1.0" encoding="utf-8"?>
<!-- Generator: Adobe Illustrator 21.0.0, SVG Export Plug-In . SVG Version: 6.00 Build 0)  -->
<svg version="1.1" id="Layer_1" xmlns="http://www.w3.org/2000/svg" xmlns:xlink="http://www.w3.org/1999/xlink" x="0px" y="0px"
	 viewBox="0 0 32 32" style="enable-background:new 0 0 32 32;" xml:space="preserve">
<path d="M28.8,16.4c-0.2-0.7-0.8-1.2-1.6-1.2h-9.6v-3.5c2.3-0.7,4-2.8,4-5.3c0-3.1-2.5-5.6-5.6-5.6s-5.6,2.5-5.6,5.6
	c0,2.5,1.7,4.6,4,5.3v3.5H4.8c-0.7,0-1.4,0.5-1.6,1.2L0,29.2c-0.2,0.9,0.3,1.7,1.2,1.9c0.1,0,0.3,0,0.4,0h28.8
	c0.9,0,1.6-0.7,1.6-1.6c0-0.1,0-0.3,0-0.4C32,29.2,28.8,16.4,28.8,16.4z M13.6,6.4C13.6,5.1,14.7,4,16,4c1.3,0,2.4,1.1,2.4,2.4
	S17.3,8.8,16,8.8C14.7,8.8,13.6,7.7,13.6,6.4z M3.7,28l2.4-9.6h8.4v3.2l1.6,3.2l1.6-3.2v-3.2H26l2.4,9.6H3.7z"/>
</svg>
