<?xml version="1.0" encoding="iso-8859-1"?>
<!-- Generator: Adobe Illustrator 17.0.0, SVG Export Plug-In . SVG Version: 6.00 Build 0)  -->
<!DOCTYPE svg PUBLIC "-//W3C//DTD SVG 1.1//EN" "http://www.w3.org/Graphics/SVG/1.1/DTD/svg11.dtd">
<svg version="1.1" xmlns="http://www.w3.org/2000/svg" xmlns:xlink="http://www.w3.org/1999/xlink" x="0px" y="0px" width="32px"
	 height="32px" viewBox="0 0 32 32" style="enable-background:new 0 0 32 32;" xml:space="preserve">
<g id="print">
	<g>
		<rect x="7.6" y="2.2" style="fill:none;" width="16.8" height="7.2"/>
		<path d="M29.2,9.4h-3.6V1H6.4v8.4H2.8C1.807,9.4,1,10.207,1,11.2v12.6c0,0.993,0.807,1.8,1.8,1.8h3.6V31h19.2v-5.4h3.6
			c0.993,0,1.8-0.807,1.8-1.8V11.2C31,10.207,30.193,9.4,29.2,9.4z M7.6,2.2h16.8v7.2H7.6V2.2z M24.4,25v4.8H7.6V25v-6h16.8V25z
			 M26.8,14.8c-0.663,0-1.2-0.537-1.2-1.2c0-0.663,0.537-1.2,1.2-1.2c0.663,0,1.2,0.537,1.2,1.2C28,14.263,27.463,14.8,26.8,14.8z"
			/>
		<path d="M22,21.4H10c-0.331,0-0.6,0.268-0.6,0.6s0.269,0.6,0.6,0.6h12c0.332,0,0.6-0.268,0.6-0.6S22.332,21.4,22,21.4z"/>
		<path d="M9.4,26.2c0,0.332,0.269,0.6,0.6,0.6h12c0.332,0,0.6-0.268,0.6-0.6c0-0.332-0.268-0.6-0.6-0.6H10
			C9.669,25.6,9.4,25.868,9.4,26.2z"/>
	</g>
</g>
<g id="Layer_1">
</g>
</svg>
