<?xml version="1.0" encoding="iso-8859-1"?>
<!-- Generator: Adobe Illustrator 17.0.0, SVG Export Plug-In . SVG Version: 6.00 Build 0)  -->
<!DOCTYPE svg PUBLIC "-//W3C//DTD SVG 1.1//EN" "http://www.w3.org/Graphics/SVG/1.1/DTD/svg11.dtd">
<svg version="1.1" xmlns="http://www.w3.org/2000/svg" xmlns:xlink="http://www.w3.org/1999/xlink" x="0px" y="0px" width="32px"
	 height="32px" viewBox="0 0 32 32" style="enable-background:new 0 0 32 32;" xml:space="preserve">
<g id="user">
	<path d="M22.668,16.726l-1.542-0.732c1.332-1.324,2.159-3.157,2.159-5.179c0-4.03-3.278-7.308-7.308-7.308
		s-7.308,3.278-7.308,7.308c0,2.03,0.834,3.869,2.175,5.194l-1.456,0.692c-3.906,1.566-3.564,6.527-3.548,6.738l0.027,0.346
		l0.235,0.255c3.791,4.104,8.234,4.452,9.633,4.452c0.11,0,0.193-0.003,0.264-0.005c0.071,0.003,0.154,0.005,0.264,0.005
		c1.399,0,5.843-0.349,9.633-4.452l0.235-0.255l0.027-0.346C26.176,23.229,26.518,18.268,22.668,16.726z M10.669,10.815
		c0-2.927,2.381-5.308,5.308-5.308c2.927,0,5.308,2.381,5.308,5.308s-2.381,5.308-5.308,5.308
		C13.05,16.123,10.669,13.742,10.669,10.815z M16.015,26.487l0-0.002c-0.002,0-0.011,0.001-0.014,0.001
		c-0.003,0-0.013-0.001-0.015-0.001l0,0.002c-0.358,0.022-4.516,0.194-8.159-3.535c0.005-0.933,0.217-3.557,2.363-4.419l2.514-1.194
		c0.986,0.497,2.096,0.783,3.273,0.783c1.187,0,2.304-0.29,3.296-0.794l2.594,1.229c2.083,0.836,2.296,3.464,2.305,4.396
		C20.529,26.681,16.375,26.508,16.015,26.487z"/>
</g>
<g id="Layer_1">
</g>
</svg>
