<?xml version="1.0" encoding="iso-8859-1"?>
<!-- Generator: Adobe Illustrator 17.0.0, SVG Export Plug-In . SVG Version: 6.00 Build 0)  -->
<!DOCTYPE svg PUBLIC "-//W3C//DTD SVG 1.1//EN" "http://www.w3.org/Graphics/SVG/1.1/DTD/svg11.dtd">
<svg version="1.1" xmlns="http://www.w3.org/2000/svg" xmlns:xlink="http://www.w3.org/1999/xlink" x="0px" y="0px" width="32px"
	 height="32px" viewBox="0 0 32 32" style="enable-background:new 0 0 32 32;" xml:space="preserve">
<g id="view">
	<path d="M16,12.25c0,2.07-1.68,3.75-3.75,3.75c0,2.07,1.68,3.75,3.75,3.75s3.75-1.68,3.75-3.75S18.07,12.25,16,12.25z M16,4.75
		C8.309,4.75,1,13.465,1,16s7.309,11.25,15,11.25S31,18.535,31,16S23.691,4.75,16,4.75z M16,23.5c-4.142,0-7.5-3.358-7.5-7.5
		s3.358-7.5,7.5-7.5s7.5,3.358,7.5,7.5S20.142,23.5,16,23.5z"/>
</g>
<g id="Layer_1">
</g>
</svg>
