<?xml version="1.0" encoding="utf-8"?>
<!-- Generator: Adobe Illustrator 16.0.0, SVG Export Plug-In . SVG Version: 6.00 Build 0)  -->
<!DOCTYPE svg PUBLIC "-//W3C//DTD SVG 1.1//EN" "http://www.w3.org/Graphics/SVG/1.1/DTD/svg11.dtd">
<svg version="1.1" id="Layer_1" xmlns="http://www.w3.org/2000/svg" xmlns:xlink="http://www.w3.org/1999/xlink" x="0px" y="0px"
	 width="32px" height="32px" viewBox="0 0 32 32" enable-background="new 0 0 32 32" xml:space="preserve">
<g id="icomoon-ignore">
</g>
<path d="M13.241,13.242h-1.104c-0.662,0-1.104,0.441-1.104,1.104v3.309c0,0.662,0.441,1.104,1.104,1.104h1.104
	c0.662,0,1.104-0.441,1.104-1.104v-3.309C14.345,13.683,13.903,13.242,13.241,13.242L13.241,13.242z M6.621,13.242H4.414v5.516
	h2.207c0.662,0,1.104-0.441,1.104-1.104v-3.309C7.725,13.683,7.283,13.242,6.621,13.242L6.621,13.242z M28.689,8.828H3.311
	C1.435,8.828,0,10.262,0,12.138v7.723c0,1.877,1.435,3.311,3.311,3.311h25.379c1.876,0,3.311-1.434,3.311-3.311v-7.723
	C32,10.262,30.565,8.828,28.689,8.828L28.689,8.828z M8.827,17.654c0,1.215-0.992,2.207-2.206,2.207H3.311v-7.723h3.311
	c1.214,0,2.206,0.993,2.206,2.207V17.654L8.827,17.654z M15.448,17.654c0,1.215-0.993,2.207-2.207,2.207h-1.104
	c-1.214,0-2.207-0.992-2.207-2.207v-3.309c0-1.214,0.993-2.207,2.207-2.207h1.104c1.214,0,2.207,0.993,2.207,2.207V17.654
	L15.448,17.654z M18.759,18.758h1.104c0.662,0,1.104-0.441,1.104-1.104h1.104c0,1.215-0.993,2.207-2.207,2.207h-1.104
	c-1.214,0-2.207-0.992-2.207-2.207v-3.309c0-1.214,0.993-2.207,2.207-2.207h1.104c1.214,0,2.207,0.993,2.207,2.207h-1.104
	c0-0.662-0.441-1.104-1.104-1.104h-1.104c-0.662,0-1.104,0.441-1.104,1.104v3.309C17.655,18.316,18.097,18.758,18.759,18.758
	L18.759,18.758z M28.689,19.861h-1.104l-1.655-2.869l-1.655,2.869h-1.103L25.379,16l-2.206-3.861h1.103l1.655,2.868l1.655-2.868
	h1.104L26.482,16L28.689,19.861L28.689,19.861z"/>
</svg>
