<?xml version="1.0" encoding="utf-8"?>
<!-- Generator: Adobe Illustrator 16.0.0, SVG Export Plug-In . SVG Version: 6.00 Build 0)  -->
<!DOCTYPE svg PUBLIC "-//W3C//DTD SVG 1.1//EN" "http://www.w3.org/Graphics/SVG/1.1/DTD/svg11.dtd">
<svg version="1.1" id="Layer_1" xmlns="http://www.w3.org/2000/svg" xmlns:xlink="http://www.w3.org/1999/xlink" x="0px" y="0px"
	 width="32px" height="32px" viewBox="0 0 32 32" enable-background="new 0 0 32 32" xml:space="preserve">
<g id="icomoon-ignore">
</g>
<path d="M8.348,12.521H5.565v2.783h2.782c0.835,0,1.392-0.557,1.392-1.392S9.183,12.521,8.348,12.521L8.348,12.521z M16.695,12.521
	h-2.782v6.957h2.782c0.835,0,1.392-0.557,1.392-1.392v-4.174C18.087,13.078,17.53,12.521,16.695,12.521z M27.826,6.957H4.174
	C1.809,6.957,0,8.766,0,11.131v9.738c0,2.365,1.809,4.174,4.174,4.174h23.652c2.365,0,4.174-1.809,4.174-4.174v-9.738
	C32,8.766,30.191,6.957,27.826,6.957z M8.348,16.695H5.565v4.174H4.174v-9.738h4.174c1.53,0,2.783,1.252,2.783,2.782
	S9.878,16.695,8.348,16.695L8.348,16.695z M19.479,18.087c0,1.53-1.252,2.782-2.783,2.782h-4.174v-9.738h4.174
	c1.531,0,2.783,1.252,2.783,2.782V18.087L19.479,18.087z M27.826,12.521h-5.565v2.783h4.174v1.391h-4.174v4.174h-1.392v-9.738h6.957
	V12.521L27.826,12.521z"/>
</svg>
