<?xml version="1.0" encoding="utf-8"?>
<!-- Generator: Adobe Illustrator 16.0.0, SVG Export Plug-In . SVG Version: 6.00 Build 0)  -->
<!DOCTYPE svg PUBLIC "-//W3C//DTD SVG 1.1//EN" "http://www.w3.org/Graphics/SVG/1.1/DTD/svg11.dtd">
<svg version="1.1" id="Layer_1" xmlns="http://www.w3.org/2000/svg" xmlns:xlink="http://www.w3.org/1999/xlink" x="0px" y="0px"
	 width="32px" height="32px" viewBox="0 0 32 32" enable-background="new 0 0 32 32" xml:space="preserve">
<g id="icomoon-ignore">
</g>
<path d="M27.826,6.957H4.174C1.809,6.957,0,8.766,0,11.131v9.738c0,2.365,1.809,4.174,4.174,4.174h23.652
	c2.365,0,4.174-1.809,4.174-4.174v-9.738C32,8.766,30.191,6.957,27.826,6.957z M11.131,20.869H9.739l-2.087-3.617l-2.087,3.617
	H4.174L6.956,16l-2.782-4.869h1.392l2.087,3.617l2.087-3.617h1.392L8.348,16L11.131,20.869z M19.479,20.869h-6.957v-9.738h1.392
	v8.348h5.565V20.869L19.479,20.869z M23.652,15.305h1.391c1.531,0,2.783,1.252,2.783,2.782s-1.252,2.782-2.783,2.782h-1.391
	c-1.53,0-2.783-1.252-2.783-2.782l0,0h1.392c0,0.695,0.557,1.392,1.392,1.392h1.392c0.834,0,1.391-0.557,1.391-1.392
	s-0.695-1.392-1.391-1.392h-1.392c-1.53,0-2.783-1.252-2.783-2.782s1.253-2.782,2.783-2.782h1.392c1.53,0,2.782,1.252,2.782,2.782
	h-1.392c0-0.695-0.557-1.392-1.392-1.392h-1.391c-0.835,0-1.392,0.557-1.392,1.392S22.957,15.305,23.652,15.305z"/>
</svg>
