<?xml version="1.0" encoding="utf-8"?>
<!-- Generator: Adobe Illustrator 16.0.0, SVG Export Plug-In . SVG Version: 6.00 Build 0)  -->
<!DOCTYPE svg PUBLIC "-//W3C//DTD SVG 1.1//EN" "http://www.w3.org/Graphics/SVG/1.1/DTD/svg11.dtd">
<svg version="1.1" id="Layer_1" xmlns="http://www.w3.org/2000/svg" xmlns:xlink="http://www.w3.org/1999/xlink" x="0px" y="0px"
	 width="32px" height="32px" viewBox="0 0 32 32" enable-background="new 0 0 32 32" xml:space="preserve">
<g id="icomoon-ignore">
</g>
<path d="M28.689,8.828H3.311C1.435,8.828,0,10.262,0,12.138v7.723c0,1.877,1.435,3.311,3.311,3.311h25.379
	c1.876,0,3.311-1.434,3.311-3.311v-7.723C32,10.262,30.565,8.828,28.689,8.828L28.689,8.828z M8.827,19.861H7.725l-1.655-2.869
	l-1.655,2.869H3.311L5.518,16l-2.207-3.861h1.104l1.655,2.868l1.655-2.868h1.103L6.621,16L8.827,19.861L8.827,19.861z
	 M15.448,19.861H9.931v-7.723h1.104v6.62h4.414V19.861L15.448,19.861z M18.759,15.449h1.104c1.214,0,2.207,0.993,2.207,2.206
	c0,1.215-0.993,2.207-2.207,2.207h-1.104c-1.214,0-2.207-0.992-2.207-2.207l0,0h1.104c0,0.553,0.441,1.104,1.104,1.104h1.104
	c0.662,0,1.104-0.441,1.104-1.104s-0.552-1.104-1.104-1.104h-1.104c-1.214,0-2.207-0.992-2.207-2.206s0.993-2.207,2.207-2.207h1.104
	c1.214,0,2.207,0.993,2.207,2.207h-1.104c0-0.552-0.441-1.104-1.104-1.104h-1.104c-0.662,0-1.104,0.441-1.104,1.104
	S18.207,15.449,18.759,15.449L18.759,15.449z M28.689,19.861h-1.104l-1.655-2.869l-1.655,2.869h-1.103L25.379,16l-2.206-3.861h1.103
	l1.655,2.868l1.655-2.868h1.104L26.482,16L28.689,19.861L28.689,19.861z"/>
</svg>
