<?xml version="1.0" encoding="utf-8"?>
<!-- Generator: Adobe Illustrator 16.0.0, SVG Export Plug-In . SVG Version: 6.00 Build 0)  -->
<!DOCTYPE svg PUBLIC "-//W3C//DTD SVG 1.1//EN" "http://www.w3.org/Graphics/SVG/1.1/DTD/svg11.dtd">
<svg version="1.1" id="Layer_1" xmlns="http://www.w3.org/2000/svg" xmlns:xlink="http://www.w3.org/1999/xlink" x="0px" y="0px"
	 width="32px" height="32px" viewBox="0 0 32 32" enable-background="new 0 0 32 32" xml:space="preserve">
<g id="icomoon-ignore">
</g>
<path d="M23.652,12.521h-2.783v2.783h2.783c0.835,0,1.391-0.557,1.391-1.392S24.487,12.521,23.652,12.521L23.652,12.521z
	 M27.826,6.957H4.174C1.809,6.957,0,8.766,0,11.131v9.738c0,2.365,1.809,4.174,4.174,4.174h23.652c2.365,0,4.174-1.809,4.174-4.174
	v-9.738C32,8.766,30.191,6.957,27.826,6.957z M12.521,12.521l-5.564,6.957h5.564v1.391H5.565v-1.391l5.565-6.957H5.565v-1.391h6.956
	V12.521L12.521,12.521z M18.087,12.521h-1.392v6.957h1.392v1.391h-4.174v-1.391h1.392v-6.957h-1.392v-1.391h4.174V12.521
	L18.087,12.521z M23.652,16.695h-2.783v4.174h-1.391v-9.738h4.174c1.53,0,2.782,1.252,2.782,2.782S25.183,16.695,23.652,16.695
	L23.652,16.695z"/>
</svg>
